<mxfile host="app.diagrams.net" modified="2024-01-03T08:14:57.111Z" agent="Mozilla/5.0 (Windows NT 10.0; Win64; x64) AppleWebKit/537.36 (KHTML, like Gecko) Chrome/120.0.0.0 Safari/537.36" etag="wD1yEGsr26kV5WaoA8c2" version="22.1.16" type="github">
  <diagram name="Page-1" id="2Oezqfeqx223OJeEhoTF">
    <mxGraphModel dx="1900" dy="565" grid="1" gridSize="10" guides="1" tooltips="1" connect="1" arrows="1" fold="1" page="1" pageScale="1" pageWidth="850" pageHeight="1100" math="0" shadow="0">
      <root>
        <mxCell id="0" />
        <mxCell id="1" parent="0" />
        <mxCell id="fD1NXqoAacMds-On0nMa-4" value="" style="edgeStyle=orthogonalEdgeStyle;rounded=0;orthogonalLoop=1;jettySize=auto;html=1;" parent="1" source="fD1NXqoAacMds-On0nMa-2" target="fD1NXqoAacMds-On0nMa-3" edge="1">
          <mxGeometry relative="1" as="geometry" />
        </mxCell>
        <mxCell id="fD1NXqoAacMds-On0nMa-2" value="&lt;font style=&quot;font-size: 20px;&quot;&gt;PM 2.5&lt;/font&gt;" style="rounded=0;whiteSpace=wrap;html=1;fillColor=#e1d5e7;strokeColor=#9673a6;" parent="1" vertex="1">
          <mxGeometry x="700" y="320" width="120" height="60" as="geometry" />
        </mxCell>
        <mxCell id="fD1NXqoAacMds-On0nMa-6" value="" style="edgeStyle=orthogonalEdgeStyle;rounded=0;orthogonalLoop=1;jettySize=auto;html=1;" parent="1" source="fD1NXqoAacMds-On0nMa-3" target="fD1NXqoAacMds-On0nMa-5" edge="1">
          <mxGeometry relative="1" as="geometry" />
        </mxCell>
        <mxCell id="fD1NXqoAacMds-On0nMa-3" value="&lt;h1&gt;NANO&lt;/h1&gt;" style="rounded=0;whiteSpace=wrap;html=1;fillColor=#f8cecc;strokeColor=#b85450;" parent="1" vertex="1">
          <mxGeometry x="509" y="200" width="120" height="160" as="geometry" />
        </mxCell>
        <mxCell id="fD1NXqoAacMds-On0nMa-5" value="&lt;font style=&quot;font-size: 20px;&quot;&gt;TX&lt;/font&gt;" style="whiteSpace=wrap;html=1;rounded=0;fillColor=#ffe6cc;strokeColor=#d79b00;" parent="1" vertex="1">
          <mxGeometry x="700" y="180" width="120" height="60" as="geometry" />
        </mxCell>
        <mxCell id="oi5SdyfLDr1I8iE26Wet-2" value="" style="rounded=0;orthogonalLoop=1;jettySize=auto;html=1;elbow=vertical;edgeStyle=orthogonalEdgeStyle;curved=0;endArrow=baseDash;endFill=0;" edge="1" parent="1" source="fD1NXqoAacMds-On0nMa-7" target="fD1NXqoAacMds-On0nMa-9">
          <mxGeometry relative="1" as="geometry" />
        </mxCell>
        <mxCell id="fD1NXqoAacMds-On0nMa-7" value="&lt;font style=&quot;font-size: 20px;&quot;&gt;5V&lt;/font&gt;" style="rounded=0;whiteSpace=wrap;html=1;fillColor=#d5e8d4;strokeColor=#82b366;" parent="1" vertex="1">
          <mxGeometry x="250" y="430" width="120" height="60" as="geometry" />
        </mxCell>
        <mxCell id="fD1NXqoAacMds-On0nMa-12" value="" style="edgeStyle=orthogonalEdgeStyle;rounded=0;orthogonalLoop=1;jettySize=auto;html=1;" parent="1" source="fD1NXqoAacMds-On0nMa-9" target="fD1NXqoAacMds-On0nMa-11" edge="1">
          <mxGeometry relative="1" as="geometry" />
        </mxCell>
        <mxCell id="fD1NXqoAacMds-On0nMa-14" value="" style="edgeStyle=orthogonalEdgeStyle;rounded=0;orthogonalLoop=1;jettySize=auto;html=1;" parent="1" source="fD1NXqoAacMds-On0nMa-9" target="fD1NXqoAacMds-On0nMa-13" edge="1">
          <mxGeometry relative="1" as="geometry" />
        </mxCell>
        <mxCell id="fD1NXqoAacMds-On0nMa-9" value="&lt;h1&gt;UNO&lt;/h1&gt;" style="rounded=0;whiteSpace=wrap;html=1;fillColor=#dae8fc;strokeColor=#6c8ebf;" parent="1" vertex="1">
          <mxGeometry x="180" y="190" width="120" height="160" as="geometry" />
        </mxCell>
        <mxCell id="fD1NXqoAacMds-On0nMa-11" value="&lt;font style=&quot;font-size: 20px;&quot;&gt;LCD&lt;/font&gt;" style="whiteSpace=wrap;html=1;rounded=0;fillColor=#60a917;strokeColor=#2D7600;fontColor=#ffffff;" parent="1" vertex="1">
          <mxGeometry x="-70" y="180" width="160" height="60" as="geometry" />
        </mxCell>
        <mxCell id="fD1NXqoAacMds-On0nMa-13" value="&lt;font style=&quot;font-size: 20px;&quot;&gt;LED&lt;/font&gt;" style="whiteSpace=wrap;html=1;rounded=0;fillColor=#6a00ff;fontColor=#ffffff;strokeColor=#3700CC;" parent="1" vertex="1">
          <mxGeometry x="-70" y="300" width="150" height="60" as="geometry" />
        </mxCell>
        <mxCell id="fD1NXqoAacMds-On0nMa-18" value="5V&lt;br style=&quot;border-color: var(--border-color);&quot;&gt;GND&lt;br style=&quot;border-color: var(--border-color);&quot;&gt;D12" style="shape=note;whiteSpace=wrap;html=1;backgroundOutline=1;fontColor=#000000;darkOpacity=0.05;fillColor=#FFF9B2;strokeColor=none;fillStyle=solid;direction=west;gradientDirection=north;gradientColor=#FFF2A1;shadow=1;size=20;pointerEvents=1;rotation=0;" parent="1" vertex="1">
          <mxGeometry x="589" y="200" width="40" height="80" as="geometry" />
        </mxCell>
        <mxCell id="fD1NXqoAacMds-On0nMa-19" value="VCC GND DATA" style="shape=note;whiteSpace=wrap;html=1;backgroundOutline=1;fontColor=#000000;darkOpacity=0.05;fillColor=#FFF9B2;strokeColor=none;fillStyle=solid;direction=west;gradientDirection=north;gradientColor=#FFF2A1;shadow=1;size=20;pointerEvents=1;" parent="1" vertex="1">
          <mxGeometry x="681" y="130" width="139" height="40" as="geometry" />
        </mxCell>
        <mxCell id="fD1NXqoAacMds-On0nMa-21" value="" style="endArrow=classic;html=1;rounded=0;" parent="1" edge="1">
          <mxGeometry width="50" height="50" relative="1" as="geometry">
            <mxPoint x="640" y="270" as="sourcePoint" />
            <mxPoint x="690" y="220" as="targetPoint" />
          </mxGeometry>
        </mxCell>
        <mxCell id="fD1NXqoAacMds-On0nMa-22" value="3" style="shape=note;whiteSpace=wrap;html=1;backgroundOutline=1;fontColor=#000000;darkOpacity=0.05;fillColor=#FFF9B2;strokeColor=none;fillStyle=solid;direction=west;gradientDirection=north;gradientColor=#FFF2A1;shadow=1;size=20;pointerEvents=1;rotation=0;" parent="1" vertex="1">
          <mxGeometry x="640" y="180" width="20" height="50" as="geometry" />
        </mxCell>
        <mxCell id="fD1NXqoAacMds-On0nMa-23" value="GND" style="shape=note;whiteSpace=wrap;html=1;backgroundOutline=1;fontColor=#000000;darkOpacity=0.05;fillColor=#FFF9B2;strokeColor=none;fillStyle=solid;direction=west;gradientDirection=north;gradientColor=#FFF2A1;shadow=1;size=20;pointerEvents=1;rotation=0;" parent="1" vertex="1">
          <mxGeometry x="780" y="470" width="30" height="50" as="geometry" />
        </mxCell>
        <mxCell id="fD1NXqoAacMds-On0nMa-24" value="5V" style="shape=note;whiteSpace=wrap;html=1;backgroundOutline=1;fontColor=#000000;darkOpacity=0.05;fillColor=#FFF9B2;strokeColor=none;fillStyle=solid;direction=west;gradientDirection=north;gradientColor=#FFF2A1;shadow=1;size=20;pointerEvents=1;rotation=0;" parent="1" vertex="1">
          <mxGeometry x="730" y="470" width="20" height="50" as="geometry" />
        </mxCell>
        <mxCell id="fD1NXqoAacMds-On0nMa-26" value="" style="endArrow=classic;html=1;rounded=0;" parent="1" edge="1">
          <mxGeometry width="50" height="50" relative="1" as="geometry">
            <mxPoint x="640" y="360" as="sourcePoint" />
            <mxPoint x="690" y="310" as="targetPoint" />
          </mxGeometry>
        </mxCell>
        <mxCell id="fD1NXqoAacMds-On0nMa-27" value="" style="endArrow=classic;html=1;rounded=0;" parent="1" edge="1">
          <mxGeometry width="50" height="50" relative="1" as="geometry">
            <mxPoint x="790" y="460" as="sourcePoint" />
            <mxPoint x="790" y="380" as="targetPoint" />
            <Array as="points" />
          </mxGeometry>
        </mxCell>
        <mxCell id="fD1NXqoAacMds-On0nMa-28" value="" style="endArrow=classic;html=1;rounded=0;" parent="1" edge="1">
          <mxGeometry width="50" height="50" relative="1" as="geometry">
            <mxPoint x="739.5" y="460" as="sourcePoint" />
            <mxPoint x="739.5" y="380" as="targetPoint" />
            <Array as="points" />
          </mxGeometry>
        </mxCell>
        <mxCell id="fD1NXqoAacMds-On0nMa-29" value="A0&lt;br&gt;D2" style="shape=note;whiteSpace=wrap;html=1;backgroundOutline=1;fontColor=#000000;darkOpacity=0.05;fillColor=#FFF9B2;strokeColor=none;fillStyle=solid;direction=west;gradientDirection=north;gradientColor=#FFF2A1;shadow=1;size=20;pointerEvents=1;rotation=0;" parent="1" vertex="1">
          <mxGeometry x="589" y="300" width="40" height="60" as="geometry" />
        </mxCell>
        <mxCell id="fD1NXqoAacMds-On0nMa-32" value="V0&lt;br&gt;LED" style="shape=note;whiteSpace=wrap;html=1;backgroundOutline=1;fontColor=#000000;darkOpacity=0.05;fillColor=#FFF9B2;strokeColor=none;fillStyle=solid;direction=west;gradientDirection=north;gradientColor=#FFF2A1;shadow=1;size=19;pointerEvents=1;rotation=0;" parent="1" vertex="1">
          <mxGeometry x="700" y="320" width="20" height="60" as="geometry" />
        </mxCell>
        <mxCell id="fD1NXqoAacMds-On0nMa-33" value="2" style="shape=note;whiteSpace=wrap;html=1;backgroundOutline=1;fontColor=#000000;darkOpacity=0.05;fillColor=#FFF9B2;strokeColor=none;fillStyle=solid;direction=west;gradientDirection=north;gradientColor=#FFF2A1;shadow=1;size=20;pointerEvents=1;rotation=0;" parent="1" vertex="1">
          <mxGeometry x="650" y="360" width="20" height="50" as="geometry" />
        </mxCell>
        <mxCell id="fD1NXqoAacMds-On0nMa-35" style="edgeStyle=orthogonalEdgeStyle;rounded=0;orthogonalLoop=1;jettySize=auto;html=1;entryX=0.5;entryY=0;entryDx=0;entryDy=0;" parent="1" source="fD1NXqoAacMds-On0nMa-34" target="fD1NXqoAacMds-On0nMa-9" edge="1">
          <mxGeometry relative="1" as="geometry" />
        </mxCell>
        <mxCell id="fD1NXqoAacMds-On0nMa-34" value="&lt;font style=&quot;font-size: 20px;&quot;&gt;RX&amp;nbsp;&lt;/font&gt;" style="rounded=0;whiteSpace=wrap;html=1;" parent="1" vertex="1">
          <mxGeometry x="350" y="90" width="120" height="60" as="geometry" />
        </mxCell>
        <mxCell id="fD1NXqoAacMds-On0nMa-39" value="VCC OUT GND" style="shape=note;whiteSpace=wrap;html=1;backgroundOutline=1;fontColor=#000000;darkOpacity=0.05;fillColor=#FFF9B2;strokeColor=none;fillStyle=solid;direction=west;gradientDirection=north;gradientColor=#FFF2A1;shadow=1;size=20;pointerEvents=1;" parent="1" vertex="1">
          <mxGeometry x="340" y="40" width="130" height="40" as="geometry" />
        </mxCell>
        <mxCell id="fD1NXqoAacMds-On0nMa-40" value="3" style="shape=note;whiteSpace=wrap;html=1;backgroundOutline=1;fontColor=#000000;darkOpacity=0.05;fillColor=#FFF9B2;strokeColor=none;fillStyle=solid;direction=west;gradientDirection=north;gradientColor=#FFF2A1;shadow=1;size=20;pointerEvents=1;rotation=0;" parent="1" vertex="1">
          <mxGeometry x="270" y="125" width="20" height="50" as="geometry" />
        </mxCell>
        <mxCell id="fD1NXqoAacMds-On0nMa-41" value="5V D2 GND" style="shape=note;whiteSpace=wrap;html=1;backgroundOutline=1;fontColor=#000000;darkOpacity=0.05;fillColor=#FFF9B2;strokeColor=none;fillStyle=solid;direction=west;gradientDirection=north;gradientColor=#FFF2A1;shadow=1;size=20;pointerEvents=1;" parent="1" vertex="1">
          <mxGeometry x="180" y="190" width="119" height="40" as="geometry" />
        </mxCell>
        <mxCell id="fD1NXqoAacMds-On0nMa-42" value="" style="endArrow=classic;html=1;rounded=0;" parent="1" edge="1">
          <mxGeometry width="50" height="50" relative="1" as="geometry">
            <mxPoint x="249" y="145" as="sourcePoint" />
            <mxPoint x="299" y="95" as="targetPoint" />
          </mxGeometry>
        </mxCell>
        <mxCell id="fD1NXqoAacMds-On0nMa-43" value="RED&lt;br&gt;YELLOW&lt;br&gt;GREEN" style="shape=note;whiteSpace=wrap;html=1;backgroundOutline=1;fontColor=#000000;darkOpacity=0.05;fillColor=#FFF9B2;strokeColor=none;fillStyle=solid;direction=west;gradientDirection=north;gradientColor=#FFF2A1;shadow=1;size=19;pointerEvents=1;rotation=0;" parent="1" vertex="1">
          <mxGeometry x="30" y="300" width="50" height="60" as="geometry" />
        </mxCell>
        <mxCell id="fD1NXqoAacMds-On0nMa-44" value="" style="endArrow=classic;html=1;rounded=0;" parent="1" edge="1">
          <mxGeometry width="50" height="50" relative="1" as="geometry">
            <mxPoint x="80" y="350" as="sourcePoint" />
            <mxPoint x="130" y="300" as="targetPoint" />
          </mxGeometry>
        </mxCell>
        <mxCell id="fD1NXqoAacMds-On0nMa-45" value="3" style="shape=note;whiteSpace=wrap;html=1;backgroundOutline=1;fontColor=#000000;darkOpacity=0.05;fillColor=#FFF9B2;strokeColor=none;fillStyle=solid;direction=west;gradientDirection=north;gradientColor=#FFF2A1;shadow=1;size=20;pointerEvents=1;rotation=0;" parent="1" vertex="1">
          <mxGeometry x="110" y="340" width="20" height="50" as="geometry" />
        </mxCell>
        <mxCell id="fD1NXqoAacMds-On0nMa-46" value="D5&lt;br&gt;D4&lt;br&gt;D3" style="shape=note;whiteSpace=wrap;html=1;backgroundOutline=1;fontColor=#000000;darkOpacity=0.05;fillColor=#FFF9B2;strokeColor=none;fillStyle=solid;direction=west;gradientDirection=north;gradientColor=#FFF2A1;shadow=1;size=20;pointerEvents=1;rotation=0;" parent="1" vertex="1">
          <mxGeometry x="152.5" y="290" width="25" height="60" as="geometry" />
        </mxCell>
        <mxCell id="fD1NXqoAacMds-On0nMa-47" value="4" style="shape=note;whiteSpace=wrap;html=1;backgroundOutline=1;fontColor=#000000;darkOpacity=0.05;fillColor=#FFF9B2;strokeColor=none;fillStyle=solid;direction=west;gradientDirection=north;gradientColor=#FFF2A1;shadow=1;size=20;pointerEvents=1;rotation=0;" parent="1" vertex="1">
          <mxGeometry x="100" y="150" width="20" height="50" as="geometry" />
        </mxCell>
        <mxCell id="fD1NXqoAacMds-On0nMa-48" value="" style="endArrow=classic;html=1;rounded=0;" parent="1" edge="1">
          <mxGeometry width="50" height="50" relative="1" as="geometry">
            <mxPoint x="95" y="235" as="sourcePoint" />
            <mxPoint x="145" y="185" as="targetPoint" />
          </mxGeometry>
        </mxCell>
        <mxCell id="fD1NXqoAacMds-On0nMa-49" value="SDA SCL&amp;nbsp;" style="shape=note;whiteSpace=wrap;html=1;backgroundOutline=1;fontColor=#000000;darkOpacity=0.05;fillColor=#FFF9B2;strokeColor=none;fillStyle=solid;direction=west;gradientDirection=north;gradientColor=#FFF2A1;shadow=1;size=20;pointerEvents=1;" parent="1" vertex="1">
          <mxGeometry x="-70" y="135" width="80" height="40" as="geometry" />
        </mxCell>
        <mxCell id="fD1NXqoAacMds-On0nMa-50" value="A4&lt;br&gt;A5&lt;br&gt;5V&lt;br&gt;GND" style="shape=note;whiteSpace=wrap;html=1;backgroundOutline=1;fontColor=#000000;darkOpacity=0.05;fillColor=#FFF9B2;strokeColor=none;fillStyle=solid;direction=west;gradientDirection=north;gradientColor=#FFF2A1;shadow=1;size=13;pointerEvents=1;rotation=0;" parent="1" vertex="1">
          <mxGeometry x="150" y="191" width="30" height="69" as="geometry" />
        </mxCell>
        <mxCell id="fD1NXqoAacMds-On0nMa-51" value="5V" style="shape=note;whiteSpace=wrap;html=1;backgroundOutline=1;fontColor=#000000;darkOpacity=0.05;fillColor=#FFF9B2;strokeColor=none;fillStyle=solid;direction=west;gradientDirection=north;gradientColor=#FFF2A1;shadow=1;size=20;pointerEvents=1;rotation=0;" parent="1" vertex="1">
          <mxGeometry x="30" y="130" width="20" height="50" as="geometry" />
        </mxCell>
        <mxCell id="fD1NXqoAacMds-On0nMa-53" value="GND" style="shape=note;whiteSpace=wrap;html=1;backgroundOutline=1;fontColor=#000000;darkOpacity=0.05;fillColor=#FFF9B2;strokeColor=none;fillStyle=solid;direction=west;gradientDirection=north;gradientColor=#FFF2A1;shadow=1;size=20;pointerEvents=1;rotation=0;" parent="1" vertex="1">
          <mxGeometry x="60" y="130" width="30" height="50" as="geometry" />
        </mxCell>
        <mxCell id="fD1NXqoAacMds-On0nMa-54" value="" style="endArrow=classic;html=1;rounded=0;" parent="1" edge="1">
          <mxGeometry width="50" height="50" relative="1" as="geometry">
            <mxPoint x="39.5" y="65" as="sourcePoint" />
            <mxPoint x="40" y="125" as="targetPoint" />
            <Array as="points" />
          </mxGeometry>
        </mxCell>
        <mxCell id="fD1NXqoAacMds-On0nMa-55" value="" style="endArrow=classic;html=1;rounded=0;" parent="1" edge="1">
          <mxGeometry width="50" height="50" relative="1" as="geometry">
            <mxPoint x="74.5" y="65" as="sourcePoint" />
            <mxPoint x="75" y="125" as="targetPoint" />
            <Array as="points" />
          </mxGeometry>
        </mxCell>
        <mxCell id="fD1NXqoAacMds-On0nMa-56" value="GND" style="shape=note;whiteSpace=wrap;html=1;backgroundOutline=1;fontColor=#000000;darkOpacity=0.05;fillColor=#FFF9B2;strokeColor=none;fillStyle=solid;direction=west;gradientDirection=north;gradientColor=#FFF2A1;shadow=1;size=20;pointerEvents=1;rotation=0;" parent="1" vertex="1">
          <mxGeometry x="-30" y="370" width="30" height="50" as="geometry" />
        </mxCell>
        <mxCell id="fD1NXqoAacMds-On0nMa-57" value="GND" style="shape=note;whiteSpace=wrap;html=1;backgroundOutline=1;fontColor=#000000;darkOpacity=0.05;fillColor=#FFF9B2;strokeColor=none;fillStyle=solid;direction=west;gradientDirection=north;gradientColor=#FFF2A1;shadow=1;size=20;pointerEvents=1;rotation=0;" parent="1" vertex="1">
          <mxGeometry x="10" y="370" width="30" height="50" as="geometry" />
        </mxCell>
        <mxCell id="fD1NXqoAacMds-On0nMa-58" value="GND" style="shape=note;whiteSpace=wrap;html=1;backgroundOutline=1;fontColor=#000000;darkOpacity=0.05;fillColor=#FFF9B2;strokeColor=none;fillStyle=solid;direction=west;gradientDirection=north;gradientColor=#FFF2A1;shadow=1;size=20;pointerEvents=1;rotation=0;" parent="1" vertex="1">
          <mxGeometry x="50" y="370" width="30" height="50" as="geometry" />
        </mxCell>
        <mxCell id="fD1NXqoAacMds-On0nMa-59" value="" style="endArrow=classic;html=1;rounded=0;" parent="1" edge="1">
          <mxGeometry width="50" height="50" relative="1" as="geometry">
            <mxPoint x="74.5" y="510" as="sourcePoint" />
            <mxPoint x="74.5" y="430" as="targetPoint" />
            <Array as="points" />
          </mxGeometry>
        </mxCell>
        <mxCell id="fD1NXqoAacMds-On0nMa-60" value="" style="endArrow=classic;html=1;rounded=0;" parent="1" edge="1">
          <mxGeometry width="50" height="50" relative="1" as="geometry">
            <mxPoint x="-15.5" y="510" as="sourcePoint" />
            <mxPoint x="-15.5" y="430" as="targetPoint" />
            <Array as="points" />
          </mxGeometry>
        </mxCell>
        <mxCell id="fD1NXqoAacMds-On0nMa-61" value="" style="endArrow=classic;html=1;rounded=0;" parent="1" edge="1">
          <mxGeometry width="50" height="50" relative="1" as="geometry">
            <mxPoint x="30" y="510" as="sourcePoint" />
            <mxPoint x="30" y="430" as="targetPoint" />
            <Array as="points" />
          </mxGeometry>
        </mxCell>
        <mxCell id="oi5SdyfLDr1I8iE26Wet-3" value="" style="edgeStyle=orthogonalEdgeStyle;rounded=0;orthogonalLoop=1;jettySize=auto;html=1;startArrow=none;startFill=0;endArrow=baseDash;endFill=0;" edge="1" parent="1" source="oi5SdyfLDr1I8iE26Wet-1" target="fD1NXqoAacMds-On0nMa-3">
          <mxGeometry relative="1" as="geometry" />
        </mxCell>
        <mxCell id="oi5SdyfLDr1I8iE26Wet-1" value="&lt;font style=&quot;font-size: 20px;&quot;&gt;5V&lt;/font&gt;" style="rounded=0;whiteSpace=wrap;html=1;fillColor=#d5e8d4;strokeColor=#82b366;" vertex="1" parent="1">
          <mxGeometry x="450" y="440" width="120" height="60" as="geometry" />
        </mxCell>
      </root>
    </mxGraphModel>
  </diagram>
</mxfile>
